<svg width="80" height="64" viewBox="0 0 80 64" fill="none" xmlns="http://www.w3.org/2000/svg">
<path d="M72.7188 0.499992L79.4688 7C71.6354 16.3333 67.7188 25.1667 67.7188 33.5C67.7188 36.5 69.0521 39.6667 71.7188 43C74.3854 46.1667 75.7188 49.3333 75.7188 52.5C75.7188 55.5 74.3854 58.0833 71.7188 60.25C69.2188 62.4167 66.0521 63.5 62.2188 63.5C58.3854 63.5 55.1354 61.9167 52.4688 58.75C49.8021 55.4167 48.4688 50.4167 48.4688 43.75C48.4688 36.9167 50.4688 29.5833 54.4687 21.75C58.6354 13.75 64.7188 6.66666 72.7188 0.499992ZM24.9688 0.499992L31.7188 7C23.8854 16.3333 19.9688 25.1667 19.9688 33.5C19.9688 36.5 21.3021 39.6667 23.9688 43C26.6354 46.1667 27.9688 49.3333 27.9688 52.5C27.9688 55.5 26.6354 58.0833 23.9688 60.25C21.4688 62.4167 18.3021 63.5 14.4688 63.5C10.6354 63.5 7.38542 61.9167 4.71875 58.75C2.05208 55.4167 0.718751 50.4167 0.718751 43.75C0.718751 36.9167 2.71875 29.5833 6.71875 21.75C10.8854 13.75 16.9688 6.66666 24.9688 0.499992Z" fill="#00B2FF" fill-opacity="0.3"/>
</svg>
