<svg width="24" height="16" viewBox="0 0 24 16" fill="none" xmlns="http://www.w3.org/2000/svg">
<path d="M7.83922 0.0531731C5.7814 0.233963 3.8193 1.35592 2.50059 3.10533C1.38927 4.58356 0.160959 8.75236 0.00675558 11.5652C-0.0889568 13.3359 0.830945 14.5749 2.85686 15.3937C3.76612 15.7606 4.8934 16.0052 5.68037 15.9999L5.97283 15.9946L6.53115 15.3033C6.83955 14.9205 7.12137 14.5642 7.1586 14.5111C7.21709 14.426 7.18518 14.4047 6.81297 14.2718C5.85584 13.9368 4.90936 13.3572 4.27127 12.7244C4.04794 12.5011 3.87247 12.3097 3.88842 12.299C3.89906 12.2884 4.12239 12.3735 4.38294 12.4958C5.37196 12.9531 6.96185 13.5114 8.15826 13.8198C10.7903 14.5004 13.1513 14.527 15.4377 13.8996C16.549 13.5965 17.7561 13.0754 18.8302 12.4373C19.0801 12.2937 19.3034 12.1714 19.33 12.1714C19.4098 12.1714 18.7238 12.8308 18.325 13.1285C17.8518 13.4848 16.9532 13.9527 16.331 14.1707C16.0864 14.2558 15.8897 14.3409 15.8897 14.3622C15.8897 14.3834 16.1343 14.7025 16.4374 15.0747C16.7351 15.4416 17.0063 15.7819 17.0436 15.8298C17.0967 15.8936 17.2031 15.9042 17.6551 15.8776C19.3619 15.7819 21.3559 15.0056 22.2599 14.0857C23.0894 13.2455 23.3872 12.2618 23.233 10.8953C22.8873 7.90159 21.8292 4.55165 20.7763 3.13192C19.564 1.48886 17.8571 0.451975 15.8365 0.127616C15.0815 0.0106344 14.9272 0.0212688 14.7518 0.20206L14.6082 0.350945L14.8634 0.420071C15.7621 0.664669 17.453 1.39315 18.2984 1.90361C18.7345 2.16948 19.5055 2.70653 19.447 2.70653C19.4257 2.70653 19.2237 2.62146 18.995 2.51511C17.3041 1.73877 15.4856 1.22299 13.5766 0.967758C12.6993 0.856093 10.2852 0.840141 9.45569 0.941172C7.55208 1.18045 5.74418 1.65901 4.28191 2.31305C3.51621 2.65336 3.56406 2.63741 3.65446 2.52574C3.79271 2.3609 4.83491 1.69624 5.40919 1.4091C5.71759 1.24958 6.24933 1.01561 6.58432 0.882681C7.17986 0.643399 8.42412 0.26055 8.59428 0.26055C8.65809 0.26055 8.64745 0.233963 8.55174 0.127616C8.48262 0.0531731 8.40286 0 8.37095 0C8.33905 0.00531769 8.09977 0.0265865 7.83922 0.0531731ZM8.36563 7.09867C9.20046 7.31136 9.77473 7.94413 9.93425 8.80554C10.1789 10.1774 8.89737 11.4908 7.57867 11.2143C6.29187 10.9484 5.56871 9.58187 6.04727 8.33229C6.31314 7.64104 7.14796 7.04549 7.88707 7.01891C7.97747 7.01359 8.19548 7.05081 8.36563 7.09867ZM16.0279 7.22096C16.5012 7.43898 16.8096 7.74738 17.0489 8.22594C17.235 8.60879 17.2456 8.65665 17.2456 9.13521C17.2403 9.77329 17.1127 10.1349 16.7351 10.5443C16.4161 10.8953 16.113 11.0814 15.6717 11.193C14.3264 11.5387 12.9758 10.22 13.2257 8.81085C13.3374 8.17809 13.683 7.65167 14.1935 7.34858C14.8103 6.98168 15.4218 6.93915 16.0279 7.22096Z" fill="#00B2FF"/>
</svg>
