<svg width="22" height="20" viewBox="0 0 22 20" fill="none" xmlns="http://www.w3.org/2000/svg">
<path d="M1.28879 11.1347L1.36459 11.0156L5.93626 3.86379C6.00308 3.75905 6.16015 3.76991 6.21073 3.88363C6.97445 5.59533 7.63351 7.72407 7.32476 9.04934C7.19295 9.5946 6.83183 10.3331 6.42556 11.0156C6.37323 11.1149 6.31543 11.2124 6.25404 11.3063C6.22518 11.3496 6.1764 11.3749 6.12403 11.3749H1.42239C1.29597 11.3749 1.22197 11.2377 1.28879 11.1347Z" fill="#00B2FF"/>
<path d="M21.6667 12.4638V13.5958C21.6667 13.6608 21.6269 13.7186 21.5691 13.7439C21.2153 13.8956 20.0037 14.4517 19.5 15.1522C18.2144 16.9415 17.2322 19.5 15.0367 19.5H5.87706C2.63069 19.5 0 16.8603 0 13.6031V13.4983C0 13.4117 0.070413 13.3412 0.157072 13.3412H5.26319C5.3643 13.3412 5.43834 13.4351 5.42932 13.5344C5.3932 13.8667 5.45459 14.2061 5.61166 14.5149C5.91498 15.1305 6.54335 15.5151 7.22221 15.5151H9.75V13.5417H7.25111C7.1229 13.5417 7.04709 13.3936 7.1211 13.2889C7.1482 13.2474 7.1789 13.204 7.21139 13.1553C7.4479 12.8195 7.78555 12.2976 8.12137 11.7036C8.35069 11.3028 8.57278 10.8748 8.75153 10.4451C8.78765 10.3675 8.81651 10.2881 8.84541 10.2104C8.89415 10.0732 8.94472 9.94499 8.98081 9.81682C9.01693 9.70849 9.04583 9.59473 9.07473 9.48819C9.1596 9.12347 9.19568 8.73708 9.19568 8.33624C9.19568 8.17917 9.18846 8.01487 9.17401 7.85776C9.16682 7.68624 9.14514 7.51472 9.12347 7.3432C9.10902 7.19151 9.08196 7.04167 9.05306 6.88459C9.01693 6.65527 8.9664 6.42779 8.9086 6.19847L8.88876 6.11181C8.84541 5.95474 8.80929 5.80485 8.75875 5.64778C8.61609 5.15485 8.4518 4.67458 8.27848 4.225C8.21529 4.04625 8.14304 3.87473 8.07083 3.70321C7.9643 3.44499 7.85596 3.21028 7.75665 2.98819C7.70612 2.88708 7.66277 2.79499 7.61946 2.70111C7.57068 2.59457 7.52014 2.48807 7.46957 2.38693C7.43349 2.30929 7.39193 2.23708 7.36303 2.16487L7.05432 1.5943C7.01097 1.51667 7.08318 1.42458 7.16804 1.44805L9.1 1.97167H9.10543C9.10902 1.97167 9.11082 1.97347 9.11265 1.97347L9.3672 2.04388L9.64709 2.12332L9.75 2.15222V1.0039C9.75 0.44958 10.1941 0 10.743 0C11.0175 0 11.2667 0.111926 11.4454 0.294304C11.6242 0.476682 11.7361 0.725841 11.7361 1.0039V2.70833L11.9419 2.76609C11.9582 2.77152 11.9744 2.77875 11.9889 2.78956C12.0394 2.82748 12.1117 2.88349 12.2037 2.95206C12.276 3.00986 12.3536 3.08028 12.4475 3.15248C12.6335 3.30237 12.8555 3.49557 13.0993 3.71762C13.1643 3.77362 13.2275 3.83138 13.2853 3.88918C13.5994 4.18165 13.9515 4.52473 14.2873 4.9039C14.3812 5.0104 14.4733 5.11873 14.5672 5.23249C14.6611 5.34805 14.7604 5.46181 14.8471 5.57557C14.9608 5.72722 15.0836 5.88429 15.1901 6.04862C15.2407 6.12626 15.2985 6.2057 15.3472 6.28333C15.4844 6.49098 15.6054 6.70585 15.721 6.92068C15.7697 7.01999 15.8203 7.12833 15.8636 7.23486C15.9918 7.52194 16.0929 7.81445 16.1579 8.10696C16.1778 8.17015 16.1922 8.23876 16.1994 8.30015V8.31456C16.2211 8.40126 16.2283 8.49335 16.2355 8.58723C16.2644 8.88693 16.25 9.18666 16.185 9.48819C16.1579 9.6164 16.1218 9.73735 16.0785 9.86556C16.0351 9.98834 15.9918 10.1165 15.9358 10.2375C15.8275 10.4885 15.6993 10.7395 15.5476 10.9742C15.4989 11.0608 15.4411 11.1529 15.3833 11.2396C15.3201 11.3317 15.2551 11.4183 15.1974 11.5032C15.1179 11.6115 15.0331 11.7253 14.9464 11.8264C14.8687 11.9329 14.7893 12.0395 14.7026 12.1333C14.5816 12.276 14.4661 12.4114 14.3451 12.5414C14.2729 12.6263 14.1953 12.7129 14.1158 12.7906C14.0382 12.8772 13.9588 12.9549 13.8865 13.0271C13.7656 13.1481 13.6644 13.2419 13.5796 13.3196L13.381 13.5019C13.3521 13.5272 13.3141 13.5417 13.2744 13.5417H11.7361V15.5151H13.6717C14.105 15.5151 14.5167 15.3617 14.8489 15.08C14.9626 14.9807 15.4592 14.551 16.046 13.9028C16.0658 13.8811 16.0911 13.8649 16.12 13.8576L21.4662 12.3121C21.5656 12.2832 21.6667 12.359 21.6667 12.4638Z" fill="#00B2FF"/>
</svg>
