<svg width="24" height="20" viewBox="0 0 24 20" fill="none" xmlns="http://www.w3.org/2000/svg">
<path d="M15.7359 0.0722141C13.8234 0.419088 12.3094 1.81596 11.8078 3.70971C11.7187 4.03315 11.7 4.22534 11.7 4.87221C11.6953 5.29878 11.7094 5.73471 11.7328 5.84721L11.7656 6.05346L11.4516 6.02065C9.38437 5.83315 7.71562 5.35971 6.05156 4.49253C4.51406 3.69096 2.91562 2.43003 1.93594 1.25346C1.78594 1.07534 1.64531 0.939402 1.62187 0.948776C1.59375 0.958151 1.49531 1.14565 1.39687 1.37065C0.721875 2.89409 0.848437 4.6519 1.725 6.02065C1.98281 6.41909 2.40469 6.89253 2.74687 7.1644L3.09844 7.45034H2.90625C2.49375 7.45034 1.63594 7.21596 1.17187 6.98159C1.07344 6.93003 0.970312 6.88784 0.951562 6.88784C0.885937 6.88784 0.970312 7.74565 1.07812 8.15815C1.50469 9.77534 2.70469 11.055 4.30312 11.5894C4.56562 11.6785 4.75312 11.7628 4.71562 11.7769C4.50469 11.8566 3.81094 11.9128 3.27187 11.8941L2.6625 11.866L2.69531 11.9878C2.74687 12.1941 3.09375 12.8503 3.30937 13.1503C4.13437 14.3128 5.48906 15.1097 6.81094 15.2175C7.00781 15.2316 7.17187 15.2597 7.17187 15.2831C7.17187 15.3581 6.12187 16.0097 5.47969 16.3285C4.01719 17.055 2.56875 17.3691 0.867187 17.3316L0 17.3128L0.24375 17.4675C0.604687 17.6925 1.69219 18.241 2.17969 18.4425C4.80937 19.5347 7.87969 19.7831 10.7766 19.141C15.0375 18.1941 18.5484 15.2316 20.3203 11.0831C21.075 9.31127 21.4547 7.56753 21.4969 5.69253L21.5109 4.84878L21.8531 4.5769C22.2844 4.22534 22.7719 3.76128 23.1422 3.34878C23.4562 2.99253 23.9156 2.37846 23.8875 2.35503C23.8781 2.34565 23.7375 2.39253 23.5734 2.45815C22.95 2.71128 21.5109 3.0769 21.2953 3.03471C21.2437 3.02534 21.2812 2.97846 21.4172 2.8894C21.7734 2.65503 22.4062 2.00346 22.6734 1.60034C22.9078 1.25346 23.25 0.564402 23.25 0.442526C23.25 0.4144 22.9641 0.536276 22.6125 0.709713C21.975 1.01909 21.1453 1.31909 20.4984 1.47378L20.1562 1.55346L19.8703 1.29096C18.7734 0.273775 17.1937 -0.190287 15.7359 0.0722141Z" fill="#00B2FF"/>
</svg>
